<svg xmlns="http://www.w3.org/2000/svg" xmlns:xlink="http://www.w3.org/1999/xlink" width="143" zoomAndPan="magnify" viewBox="0 0 107.25 36.000001" height="48" preserveAspectRatio="xMidYMid meet" version="1.0"><defs><g/></defs><g fill="#ffffff" fill-opacity="1"><g transform="translate(4.591572, 24.814825)"><g><path d="M 4.34375 -2.3125 C 4.519531 -2.257812 4.742188 -2.222656 5.015625 -2.203125 C 5.285156 -2.191406 5.539062 -2.1875 5.78125 -2.1875 C 6.28125 -2.1875 6.691406 -2.285156 7.015625 -2.484375 C 7.335938 -2.691406 7.5 -3.007812 7.5 -3.4375 C 7.5 -3.84375 7.363281 -4.128906 7.09375 -4.296875 C 6.820312 -4.472656 6.410156 -4.5625 5.859375 -4.5625 L 4.34375 -4.5625 Z M 4.34375 -6.828125 L 5.6875 -6.828125 C 6.21875 -6.828125 6.601562 -6.921875 6.84375 -7.109375 C 7.082031 -7.304688 7.203125 -7.597656 7.203125 -7.984375 C 7.203125 -8.316406 7.0625 -8.582031 6.78125 -8.78125 C 6.507812 -8.976562 6.097656 -9.078125 5.546875 -9.078125 C 5.359375 -9.078125 5.144531 -9.066406 4.90625 -9.046875 C 4.664062 -9.035156 4.476562 -9.019531 4.34375 -9 Z M 5.546875 0.296875 C 5.335938 0.296875 5.085938 0.289062 4.796875 0.28125 C 4.515625 0.269531 4.222656 0.242188 3.921875 0.203125 C 3.617188 0.160156 3.320312 0.113281 3.03125 0.0625 C 2.738281 0.0078125 2.46875 -0.0664062 2.21875 -0.171875 C 1.539062 -0.421875 1.203125 -0.867188 1.203125 -1.515625 L 1.203125 -10.140625 C 1.203125 -10.398438 1.269531 -10.601562 1.40625 -10.75 C 1.550781 -10.894531 1.75 -11.007812 2 -11.09375 C 2.414062 -11.238281 2.9375 -11.34375 3.5625 -11.40625 C 4.195312 -11.476562 4.847656 -11.515625 5.515625 -11.515625 C 7.085938 -11.515625 8.296875 -11.25 9.140625 -10.71875 C 9.992188 -10.1875 10.421875 -9.367188 10.421875 -8.265625 C 10.421875 -7.710938 10.257812 -7.234375 9.9375 -6.828125 C 9.625 -6.429688 9.195312 -6.140625 8.65625 -5.953125 C 9.269531 -5.773438 9.78125 -5.457031 10.1875 -5 C 10.601562 -4.550781 10.8125 -3.984375 10.8125 -3.296875 C 10.8125 -2.066406 10.359375 -1.160156 9.453125 -0.578125 C 8.546875 0.00390625 7.242188 0.296875 5.546875 0.296875 Z M 5.546875 0.296875 "/></g></g></g><g fill="#ffffff" fill-opacity="1"><g transform="translate(16.025266, 24.814825)"><g><path d="M 10.265625 -4.484375 C 10.265625 -3.722656 10.144531 -3.039062 9.90625 -2.4375 C 9.675781 -1.84375 9.347656 -1.34375 8.921875 -0.9375 C 8.492188 -0.53125 7.984375 -0.222656 7.390625 -0.015625 C 6.796875 0.191406 6.140625 0.296875 5.421875 0.296875 C 4.691406 0.296875 4.03125 0.1875 3.4375 -0.03125 C 2.84375 -0.257812 2.332031 -0.578125 1.90625 -0.984375 C 1.488281 -1.398438 1.160156 -1.898438 0.921875 -2.484375 C 0.691406 -3.078125 0.578125 -3.742188 0.578125 -4.484375 C 0.578125 -5.210938 0.691406 -5.875 0.921875 -6.46875 C 1.160156 -7.0625 1.488281 -7.5625 1.90625 -7.96875 C 2.332031 -8.382812 2.84375 -8.703125 3.4375 -8.921875 C 4.03125 -9.148438 4.691406 -9.265625 5.421875 -9.265625 C 6.140625 -9.265625 6.796875 -9.148438 7.390625 -8.921875 C 7.984375 -8.691406 8.492188 -8.367188 8.921875 -7.953125 C 9.347656 -7.546875 9.675781 -7.046875 9.90625 -6.453125 C 10.144531 -5.859375 10.265625 -5.203125 10.265625 -4.484375 Z M 3.796875 -4.484375 C 3.796875 -3.734375 3.9375 -3.15625 4.21875 -2.75 C 4.507812 -2.351562 4.914062 -2.15625 5.4375 -2.15625 C 5.945312 -2.15625 6.34375 -2.359375 6.625 -2.765625 C 6.90625 -3.171875 7.046875 -3.742188 7.046875 -4.484375 C 7.046875 -5.222656 6.898438 -5.789062 6.609375 -6.1875 C 6.328125 -6.59375 5.929688 -6.796875 5.421875 -6.796875 C 4.898438 -6.796875 4.5 -6.59375 4.21875 -6.1875 C 3.9375 -5.789062 3.796875 -5.222656 3.796875 -4.484375 Z M 3.796875 -4.484375 "/></g></g></g><g fill="#ffffff" fill-opacity="1"><g transform="translate(26.849408, 24.814825)"><g><path d="M 10.265625 -4.484375 C 10.265625 -3.722656 10.144531 -3.039062 9.90625 -2.4375 C 9.675781 -1.84375 9.347656 -1.34375 8.921875 -0.9375 C 8.492188 -0.53125 7.984375 -0.222656 7.390625 -0.015625 C 6.796875 0.191406 6.140625 0.296875 5.421875 0.296875 C 4.691406 0.296875 4.03125 0.1875 3.4375 -0.03125 C 2.84375 -0.257812 2.332031 -0.578125 1.90625 -0.984375 C 1.488281 -1.398438 1.160156 -1.898438 0.921875 -2.484375 C 0.691406 -3.078125 0.578125 -3.742188 0.578125 -4.484375 C 0.578125 -5.210938 0.691406 -5.875 0.921875 -6.46875 C 1.160156 -7.0625 1.488281 -7.5625 1.90625 -7.96875 C 2.332031 -8.382812 2.84375 -8.703125 3.4375 -8.921875 C 4.03125 -9.148438 4.691406 -9.265625 5.421875 -9.265625 C 6.140625 -9.265625 6.796875 -9.148438 7.390625 -8.921875 C 7.984375 -8.691406 8.492188 -8.367188 8.921875 -7.953125 C 9.347656 -7.546875 9.675781 -7.046875 9.90625 -6.453125 C 10.144531 -5.859375 10.265625 -5.203125 10.265625 -4.484375 Z M 3.796875 -4.484375 C 3.796875 -3.734375 3.9375 -3.15625 4.21875 -2.75 C 4.507812 -2.351562 4.914062 -2.15625 5.4375 -2.15625 C 5.945312 -2.15625 6.34375 -2.359375 6.625 -2.765625 C 6.90625 -3.171875 7.046875 -3.742188 7.046875 -4.484375 C 7.046875 -5.222656 6.898438 -5.789062 6.609375 -6.1875 C 6.328125 -6.59375 5.929688 -6.796875 5.421875 -6.796875 C 4.898438 -6.796875 4.5 -6.59375 4.21875 -6.1875 C 3.9375 -5.789062 3.796875 -5.222656 3.796875 -4.484375 Z M 3.796875 -4.484375 "/></g></g></g><g fill="#ffffff" fill-opacity="1"><g transform="translate(37.673551, 24.814825)"><g><path d="M 9.734375 -1.625 C 9.679688 -1.050781 9.515625 -0.609375 9.234375 -0.296875 C 8.953125 0.015625 8.546875 0.171875 8.015625 0.171875 C 7.628906 0.171875 7.28125 0.078125 6.96875 -0.109375 C 6.65625 -0.304688 6.320312 -0.632812 5.96875 -1.09375 L 4.140625 -3.375 L 4.140625 -0.015625 C 4.003906 0.00390625 3.800781 0.0351562 3.53125 0.078125 C 3.269531 0.117188 3.003906 0.140625 2.734375 0.140625 C 2.460938 0.140625 2.21875 0.117188 2 0.078125 C 1.789062 0.046875 1.609375 -0.0195312 1.453125 -0.125 C 1.304688 -0.238281 1.191406 -0.390625 1.109375 -0.578125 C 1.035156 -0.773438 1 -1.023438 1 -1.328125 L 1 -12.03125 C 1.132812 -12.070312 1.332031 -12.113281 1.59375 -12.15625 C 1.863281 -12.195312 2.132812 -12.21875 2.40625 -12.21875 C 2.675781 -12.21875 2.914062 -12.195312 3.125 -12.15625 C 3.34375 -12.125 3.523438 -12.050781 3.671875 -11.9375 C 3.828125 -11.832031 3.941406 -11.679688 4.015625 -11.484375 C 4.097656 -11.296875 4.140625 -11.046875 4.140625 -10.734375 L 4.140625 -5.859375 L 7.3125 -9.109375 C 7.957031 -9.109375 8.472656 -8.96875 8.859375 -8.6875 C 9.253906 -8.40625 9.453125 -8.046875 9.453125 -7.609375 C 9.453125 -7.429688 9.421875 -7.265625 9.359375 -7.109375 C 9.296875 -6.953125 9.195312 -6.789062 9.0625 -6.625 C 8.9375 -6.46875 8.769531 -6.300781 8.5625 -6.125 C 8.363281 -5.945312 8.128906 -5.742188 7.859375 -5.515625 L 6.78125 -4.578125 Z M 9.734375 -1.625 "/></g></g></g><g fill="#ffffff" fill-opacity="1"><g transform="translate(47.925086, 24.814825)"><g><path d="M 4.375 -4.453125 C 3.832031 -4.640625 3.335938 -4.828125 2.890625 -5.015625 C 2.453125 -5.210938 2.070312 -5.445312 1.75 -5.71875 C 1.4375 -5.988281 1.1875 -6.3125 1 -6.6875 C 0.820312 -7.0625 0.734375 -7.519531 0.734375 -8.0625 C 0.734375 -9.101562 1.132812 -9.9375 1.9375 -10.5625 C 2.75 -11.195312 3.882812 -11.515625 5.34375 -11.515625 C 5.875 -11.515625 6.363281 -11.476562 6.8125 -11.40625 C 7.269531 -11.332031 7.660156 -11.21875 7.984375 -11.0625 C 8.316406 -10.90625 8.570312 -10.707031 8.75 -10.46875 C 8.9375 -10.226562 9.03125 -9.945312 9.03125 -9.625 C 9.03125 -9.3125 8.957031 -9.039062 8.8125 -8.8125 C 8.664062 -8.582031 8.488281 -8.382812 8.28125 -8.21875 C 8.007812 -8.394531 7.644531 -8.546875 7.1875 -8.671875 C 6.726562 -8.804688 6.226562 -8.875 5.6875 -8.875 C 5.132812 -8.875 4.726562 -8.796875 4.46875 -8.640625 C 4.207031 -8.484375 4.078125 -8.289062 4.078125 -8.0625 C 4.078125 -7.875 4.15625 -7.722656 4.3125 -7.609375 C 4.476562 -7.492188 4.722656 -7.382812 5.046875 -7.28125 L 6.03125 -6.96875 C 7.1875 -6.601562 8.070312 -6.128906 8.6875 -5.546875 C 9.3125 -4.972656 9.625 -4.195312 9.625 -3.21875 C 9.625 -2.164062 9.210938 -1.316406 8.390625 -0.671875 C 7.566406 -0.0234375 6.351562 0.296875 4.75 0.296875 C 4.1875 0.296875 3.660156 0.25 3.171875 0.15625 C 2.679688 0.0625 2.253906 -0.0703125 1.890625 -0.25 C 1.523438 -0.425781 1.238281 -0.644531 1.03125 -0.90625 C 0.832031 -1.175781 0.734375 -1.484375 0.734375 -1.828125 C 0.734375 -2.179688 0.835938 -2.484375 1.046875 -2.734375 C 1.265625 -2.992188 1.492188 -3.191406 1.734375 -3.328125 C 2.078125 -3.054688 2.5 -2.820312 3 -2.625 C 3.5 -2.425781 4.046875 -2.328125 4.640625 -2.328125 C 5.242188 -2.328125 5.664062 -2.421875 5.90625 -2.609375 C 6.15625 -2.796875 6.28125 -3.007812 6.28125 -3.25 C 6.28125 -3.5 6.179688 -3.6875 5.984375 -3.8125 C 5.785156 -3.945312 5.507812 -4.078125 5.15625 -4.203125 Z M 4.375 -4.453125 "/></g></g></g><g fill="#ffffff" fill-opacity="1"><g transform="translate(58.102731, 24.814825)"><g><path d="M 4.109375 -3.09375 C 4.109375 -2.769531 4.207031 -2.539062 4.40625 -2.40625 C 4.613281 -2.269531 4.898438 -2.203125 5.265625 -2.203125 C 5.453125 -2.203125 5.644531 -2.21875 5.84375 -2.25 C 6.039062 -2.28125 6.210938 -2.316406 6.359375 -2.359375 C 6.472656 -2.222656 6.566406 -2.070312 6.640625 -1.90625 C 6.722656 -1.738281 6.765625 -1.539062 6.765625 -1.3125 C 6.765625 -0.84375 6.585938 -0.457031 6.234375 -0.15625 C 5.890625 0.132812 5.269531 0.28125 4.375 0.28125 C 3.289062 0.28125 2.457031 0.0351562 1.875 -0.453125 C 1.289062 -0.953125 1 -1.753906 1 -2.859375 L 1 -10.78125 C 1.132812 -10.8125 1.328125 -10.847656 1.578125 -10.890625 C 1.828125 -10.941406 2.097656 -10.96875 2.390625 -10.96875 C 2.929688 -10.96875 3.351562 -10.867188 3.65625 -10.671875 C 3.957031 -10.484375 4.109375 -10.082031 4.109375 -9.46875 L 4.109375 -8.28125 L 6.53125 -8.28125 C 6.601562 -8.144531 6.671875 -7.972656 6.734375 -7.765625 C 6.804688 -7.566406 6.84375 -7.34375 6.84375 -7.09375 C 6.84375 -6.664062 6.742188 -6.351562 6.546875 -6.15625 C 6.359375 -5.96875 6.101562 -5.875 5.78125 -5.875 L 4.109375 -5.875 Z M 4.109375 -3.09375 "/></g></g></g><g fill="#ffffff" fill-opacity="1"><g transform="translate(65.491223, 24.814825)"><g><path d="M 10.265625 -4.484375 C 10.265625 -3.722656 10.144531 -3.039062 9.90625 -2.4375 C 9.675781 -1.84375 9.347656 -1.34375 8.921875 -0.9375 C 8.492188 -0.53125 7.984375 -0.222656 7.390625 -0.015625 C 6.796875 0.191406 6.140625 0.296875 5.421875 0.296875 C 4.691406 0.296875 4.03125 0.1875 3.4375 -0.03125 C 2.84375 -0.257812 2.332031 -0.578125 1.90625 -0.984375 C 1.488281 -1.398438 1.160156 -1.898438 0.921875 -2.484375 C 0.691406 -3.078125 0.578125 -3.742188 0.578125 -4.484375 C 0.578125 -5.210938 0.691406 -5.875 0.921875 -6.46875 C 1.160156 -7.0625 1.488281 -7.5625 1.90625 -7.96875 C 2.332031 -8.382812 2.84375 -8.703125 3.4375 -8.921875 C 4.03125 -9.148438 4.691406 -9.265625 5.421875 -9.265625 C 6.140625 -9.265625 6.796875 -9.148438 7.390625 -8.921875 C 7.984375 -8.691406 8.492188 -8.367188 8.921875 -7.953125 C 9.347656 -7.546875 9.675781 -7.046875 9.90625 -6.453125 C 10.144531 -5.859375 10.265625 -5.203125 10.265625 -4.484375 Z M 3.796875 -4.484375 C 3.796875 -3.734375 3.9375 -3.15625 4.21875 -2.75 C 4.507812 -2.351562 4.914062 -2.15625 5.4375 -2.15625 C 5.945312 -2.15625 6.34375 -2.359375 6.625 -2.765625 C 6.90625 -3.171875 7.046875 -3.742188 7.046875 -4.484375 C 7.046875 -5.222656 6.898438 -5.789062 6.609375 -6.1875 C 6.328125 -6.59375 5.929688 -6.796875 5.421875 -6.796875 C 4.898438 -6.796875 4.5 -6.59375 4.21875 -6.1875 C 3.9375 -5.789062 3.796875 -5.222656 3.796875 -4.484375 Z M 3.796875 -4.484375 "/></g></g></g><g fill="#ffffff" fill-opacity="1"><g transform="translate(76.315365, 24.814825)"><g><path d="M 4.109375 -0.015625 C 3.984375 0.015625 3.785156 0.046875 3.515625 0.078125 C 3.253906 0.117188 2.984375 0.140625 2.703125 0.140625 C 2.429688 0.140625 2.1875 0.117188 1.96875 0.078125 C 1.75 0.046875 1.566406 -0.0195312 1.421875 -0.125 C 1.273438 -0.238281 1.160156 -0.390625 1.078125 -0.578125 C 1.003906 -0.773438 0.96875 -1.023438 0.96875 -1.328125 L 0.96875 -6.875 C 0.96875 -7.15625 1.019531 -7.394531 1.125 -7.59375 C 1.226562 -7.800781 1.378906 -7.988281 1.578125 -8.15625 C 1.765625 -8.3125 2.003906 -8.453125 2.296875 -8.578125 C 2.585938 -8.710938 2.898438 -8.828125 3.234375 -8.921875 C 3.566406 -9.023438 3.910156 -9.101562 4.265625 -9.15625 C 4.628906 -9.207031 4.988281 -9.234375 5.34375 -9.234375 C 5.9375 -9.234375 6.40625 -9.117188 6.75 -8.890625 C 7.09375 -8.671875 7.265625 -8.300781 7.265625 -7.78125 C 7.265625 -7.601562 7.238281 -7.429688 7.1875 -7.265625 C 7.132812 -7.109375 7.070312 -6.960938 7 -6.828125 C 6.75 -6.828125 6.484375 -6.8125 6.203125 -6.78125 C 5.929688 -6.757812 5.664062 -6.722656 5.40625 -6.671875 C 5.15625 -6.617188 4.914062 -6.566406 4.6875 -6.515625 C 4.457031 -6.460938 4.265625 -6.398438 4.109375 -6.328125 Z M 4.109375 -0.015625 "/></g></g></g><g fill="#ffffff" fill-opacity="1"><g transform="translate(83.907044, 24.814825)"><g><path d="M 5.71875 0.296875 C 4.988281 0.296875 4.3125 0.195312 3.6875 0 C 3.0625 -0.207031 2.519531 -0.515625 2.0625 -0.921875 C 1.601562 -1.328125 1.238281 -1.835938 0.96875 -2.453125 C 0.707031 -3.066406 0.578125 -3.789062 0.578125 -4.625 C 0.578125 -5.4375 0.707031 -6.132812 0.96875 -6.71875 C 1.238281 -7.300781 1.585938 -7.78125 2.015625 -8.15625 C 2.441406 -8.53125 2.929688 -8.804688 3.484375 -8.984375 C 4.046875 -9.171875 4.613281 -9.265625 5.1875 -9.265625 C 5.84375 -9.265625 6.4375 -9.164062 6.96875 -8.96875 C 7.507812 -8.769531 7.972656 -8.5 8.359375 -8.15625 C 8.753906 -7.8125 9.054688 -7.394531 9.265625 -6.90625 C 9.484375 -6.425781 9.59375 -5.90625 9.59375 -5.34375 C 9.59375 -4.925781 9.472656 -4.601562 9.234375 -4.375 C 9.003906 -4.15625 8.679688 -4.015625 8.265625 -3.953125 L 3.703125 -3.265625 C 3.835938 -2.859375 4.113281 -2.550781 4.53125 -2.34375 C 4.945312 -2.144531 5.425781 -2.046875 5.96875 -2.046875 C 6.476562 -2.046875 6.957031 -2.109375 7.40625 -2.234375 C 7.851562 -2.367188 8.21875 -2.523438 8.5 -2.703125 C 8.695312 -2.578125 8.863281 -2.398438 9 -2.171875 C 9.132812 -1.953125 9.203125 -1.722656 9.203125 -1.484375 C 9.203125 -0.921875 8.941406 -0.503906 8.421875 -0.234375 C 8.035156 -0.0234375 7.59375 0.113281 7.09375 0.1875 C 6.601562 0.257812 6.144531 0.296875 5.71875 0.296875 Z M 5.1875 -6.96875 C 4.894531 -6.96875 4.640625 -6.914062 4.421875 -6.8125 C 4.210938 -6.71875 4.039062 -6.59375 3.90625 -6.4375 C 3.769531 -6.28125 3.664062 -6.109375 3.59375 -5.921875 C 3.53125 -5.734375 3.488281 -5.539062 3.46875 -5.34375 L 6.640625 -5.859375 C 6.597656 -6.109375 6.457031 -6.351562 6.21875 -6.59375 C 5.988281 -6.84375 5.644531 -6.96875 5.1875 -6.96875 Z M 5.1875 -6.96875 "/></g></g></g><g fill="#ffffff" fill-opacity="1"><g transform="translate(94.047744, 24.814825)"><g><path d="M 0.40625 -1.5 C 0.40625 -2.019531 0.566406 -2.453125 0.890625 -2.796875 C 1.210938 -3.140625 1.648438 -3.3125 2.203125 -3.3125 C 2.753906 -3.3125 3.191406 -3.140625 3.515625 -2.796875 C 3.835938 -2.453125 4 -2.019531 4 -1.5 C 4 -0.976562 3.835938 -0.546875 3.515625 -0.203125 C 3.191406 0.140625 2.753906 0.3125 2.203125 0.3125 C 1.648438 0.3125 1.210938 0.140625 0.890625 -0.203125 C 0.566406 -0.546875 0.40625 -0.976562 0.40625 -1.5 Z M 0.40625 -1.5 "/></g></g></g></svg>